<?xml version="1.0" encoding="UTF-8" standalone="no"?>
<!-- Created with Inkscape (http://www.inkscape.org/) -->

<svg
   width="500"
   height="500"
   viewBox="0 0 132.29166 132.29167"
   version="1.1"
   id="svg1"
   xml:space="preserve"
   inkscape:version="1.4 (86a8ad7, 2024-10-11)"
   sodipodi:docname="db_7.svg"
   xmlns:inkscape="http://www.inkscape.org/namespaces/inkscape"
   xmlns:sodipodi="http://sodipodi.sourceforge.net/DTD/sodipodi-0.dtd"
   xmlns:xlink="http://www.w3.org/1999/xlink"
   xmlns="http://www.w3.org/2000/svg"
   xmlns:svg="http://www.w3.org/2000/svg"><sodipodi:namedview
     id="namedview1"
     pagecolor="#ffffff"
     bordercolor="#000000"
     borderopacity="0.25"
     inkscape:showpageshadow="2"
     inkscape:pageopacity="0.0"
     inkscape:pagecheckerboard="0"
     inkscape:deskcolor="#d1d1d1"
     inkscape:document-units="mm"
     inkscape:zoom="2.0186728"
     inkscape:cx="187.74712"
     inkscape:cy="295.98655"
     inkscape:window-width="2560"
     inkscape:window-height="1351"
     inkscape:window-x="2551"
     inkscape:window-y="-9"
     inkscape:window-maximized="1"
     inkscape:current-layer="svg1" /><defs
     id="defs1"><linearGradient
       id="linearGradient33"
       inkscape:collect="always"><stop
         style="stop-color:#fff4da;stop-opacity:1;"
         offset="0.06995885"
         id="stop33" /><stop
         style="stop-color:#fff4da;stop-opacity:0;"
         offset="1"
         id="stop34" /></linearGradient><linearGradient
       id="swatch24"
       inkscape:swatch="solid"><stop
         style="stop-color:#9f8ebe;stop-opacity:1;"
         offset="0"
         id="stop24" /></linearGradient><linearGradient
       id="swatch19"
       inkscape:swatch="solid"><stop
         style="stop-color:#d1a2be;stop-opacity:1;"
         offset="0"
         id="stop20" /></linearGradient><radialGradient
       inkscape:collect="always"
       xlink:href="#linearGradient33"
       id="radialGradient34"
       cx="41.983612"
       cy="35.496071"
       fx="41.983612"
       fy="35.496071"
       r="12.511672"
       gradientTransform="matrix(1,0,0,0.91111099,-2.9926616e-8,3.1552107)"
       gradientUnits="userSpaceOnUse" /></defs><ellipse
     style="display:inline;opacity:1;fill:#fbf1d6;fill-opacity:1;stroke:#000000;stroke-width:0;stroke-linecap:round;stroke-dasharray:none;stroke-opacity:1"
     id="path3-7-2-9"
     inkscape:label="main_layer"
     ry="59.828171"
     rx="58.921936"
     cy="66.235687"
     cx="66.57296"
     sodipodi:insensitive="true" /><ellipse
     style="display:inline;opacity:1;fill:#ffa708;fill-opacity:1;stroke:#000000;stroke-width:0;stroke-linecap:round;stroke-dasharray:none;stroke-opacity:1"
     id="path3-7-2"
     cx="66.246933"
     cy="68.597359"
     rx="58.397667"
     ry="58.386421"
     inkscape:label="second_layer"
     sodipodi:insensitive="true" /><ellipse
     style="display:inline;opacity:1;fill:#fe9100;fill-opacity:1;stroke:#000000;stroke-width:0;stroke-linecap:round;stroke-dasharray:none;stroke-opacity:1"
     id="path3-7-2-5"
     cx="65.917618"
     cy="65.840034"
     rx="52.106403"
     ry="52.095158"
     inkscape:label="third_layer"
     sodipodi:insensitive="true" /><ellipse
     style="display:inline;opacity:1;fill:#ffb20c;fill-opacity:1;stroke:#000000;stroke-width:0;stroke-linecap:round;stroke-dasharray:none;stroke-opacity:1"
     id="path3-7-2-5-8"
     cx="53.197231"
     cy="57.444881"
     rx="30.414656"
     ry="30.927681"
     inkscape:label="fourth_layer"
     sodipodi:insensitive="true" /><path
     id="path34"
     style="opacity:1;fill:#e65d00;fill-opacity:1;fill-rule:evenodd;stroke:#e2d7ea;stroke-width:0;stroke-linecap:round;stroke-dasharray:none;stroke-opacity:0.819423"
     d="M 92.406133,26.195519 C 103.1823,36.593067 106.80269,51.003691 104.16304,65.413334 102.19268,76.152135 96.813324,84.482299 88.783007,90.8737 78.764526,98.847496 66.507552,102.07628 52.675306,99.538245 39.742151,97.154523 28.013206,91.224563 21.180453,80.258969 26.934881,95.71559 40.461223,107.04576 56.777776,110.07664 82.337855,114.76609 106.82822,98.020399 111.47871,72.673957 114.7474,54.847719 107.31067,36.725386 92.406133,26.195519 Z"
     sodipodi:nodetypes="ccsccccc"
     inkscape:label="crescent_moon"
     sodipodi:insensitive="true" /><ellipse
     style="display:inline;opacity:1;fill:#fbf2d3;fill-opacity:1;stroke:#000000;stroke-width:0;stroke-linecap:round;stroke-dasharray:none;stroke-opacity:1"
     id="path4"
     cx="48.39505"
     cy="28.690287"
     rx="2.3499894"
     ry="3.9562802"
     transform="matrix(0.83331706,0.55279531,-0.4462885,0.89488915,0,0)"
     inkscape:label="shiny_small_layer"
     sodipodi:insensitive="true" /><ellipse
     style="display:none;opacity:1;fill:url(#radialGradient34);fill-opacity:1;fill-rule:evenodd;stroke:#e2d7ea;stroke-width:0;stroke-linecap:round;stroke-dasharray:none;stroke-opacity:0.819423"
     id="path31"
     cx="40.871464"
     cy="34.569279"
     rx="12.511672"
     ry="11.399522"
     inkscape:label="shining"
     sodipodi:insensitive="true" /><ellipse
     style="opacity:1;fill:#fff4da;fill-opacity:1;fill-rule:evenodd;stroke:#e2d7ea;stroke-width:0;stroke-linecap:round;stroke-dasharray:none;stroke-opacity:0.819423"
     id="path25"
     cx="13.524845"
     cy="41.977097"
     rx="17.297134"
     ry="7.713068"
     transform="matrix(0.78342457,-0.62148688,0.53136988,0.84713993,0,0)"
     inkscape:label="shiny_large_layer"
     sodipodi:insensitive="true" /><path
     id="path7"
     style="opacity:1;fill:#ffb20c;fill-opacity:1;fill-rule:evenodd;stroke:#e2d7ea;stroke-width:0;stroke-linecap:round;stroke-opacity:0.819423"
     d="m 69.448201,30.493961 c -6.171588,0.023 -12.098113,2.697564 -16.548861,7.468278 3.89025,-2.799211 7.701151,-1.401015 12.142376,-1.415575 14.015009,0.0038 25.689419,13.821015 26.502437,32.100509 0.936232,-2.872511 2.166345,-6.922115 2.186305,-9.978612 C 93.73054,43.875814 82.705367,30.49375 69.448201,30.493964 Z"
     sodipodi:nodetypes="ccccccc"
     sodipodi:insensitive="true" /><path
     style="opacity:0.730226;fill:#ffa708;fill-opacity:1;fill-rule:evenodd;stroke:#e2d7ea;stroke-width:0;stroke-linecap:round;stroke-opacity:0.819423"
     id="path8"
     d="m 85.914202,60.15343 c -0.0191,-0.04427 -0.0382,-0.08855 -0.05729,-0.132818 0,0 -3.567001,-1.671085 -3.567001,-1.671085 v 0 c 0.01151,0.04473 0.02302,0.08947 0.03452,0.134202 z"
     sodipodi:insensitive="true" /><path
     sodipodi:type="star"
     style="display:inline;opacity:1;fill:#a10000;fill-opacity:1;stroke:#000000;stroke-width:0;stroke-linecap:round;stroke-dasharray:none;stroke-opacity:1"
     id="path5"
     inkscape:flatsided="false"
     sodipodi:sides="5"
     sodipodi:cx="61.995148"
     sodipodi:cy="60.553398"
     sodipodi:r1="14.339218"
     sodipodi:r2="5.0882249"
     sodipodi:arg1="0.9346077"
     sodipodi:arg2="1.5597067"
     inkscape:rounded="0"
     inkscape:randomized="0"
     d="m 70.514565,72.087379 -8.462992,-6.446069 -8.393248,6.578732 3.515367,-10.040729 -8.850401,-5.949513 10.635608,0.240557 2.923399,-10.255733 3.0578,10.189401 10.657162,-0.388878 -8.745784,6.056839 z"
     inkscape:transform-center-x="0.030852672"
     inkscape:transform-center-y="-1.2080714"
     transform="matrix(0.88471526,0,0,0.90420124,-5.504748,40.529382)"
     inkscape:label="star1b"
     sodipodi:insensitive="true" /><path
     sodipodi:type="star"
     style="display:inline;fill:#ffffff;fill-opacity:1;stroke:#000000;stroke-width:0;stroke-linecap:round;stroke-dasharray:none;stroke-opacity:1"
     id="path5-3"
     inkscape:flatsided="false"
     sodipodi:sides="5"
     sodipodi:cx="61.995148"
     sodipodi:cy="60.553398"
     sodipodi:r1="14.339218"
     sodipodi:r2="0.069139034"
     sodipodi:arg1="0.9346077"
     sodipodi:arg2="1.8967852"
     inkscape:rounded="0"
     inkscape:randomized="0"
     d="M 70.514565,72.087379 61.973006,60.618896 53.658325,72.220042 61.926014,60.55258 48.323291,56.2298 l 13.651271,4.257595 -0.09226,-14.272771 0.169261,14.2988 13.545701,-4.498277 -13.546662,4.579549 z"
     inkscape:transform-center-x="0.030852672"
     inkscape:transform-center-y="-1.2080714"
     transform="matrix(0.88471526,0,0,0.90420124,-5.506439,40.54763)"
     inkscape:label="star1"
     sodipodi:insensitive="true" /><path
     sodipodi:type="star"
     style="display:inline;fill:#a10000;fill-opacity:1;stroke:#000000;stroke-width:0;stroke-linecap:round;stroke-dasharray:none;stroke-opacity:1"
     id="path5-8"
     inkscape:flatsided="false"
     sodipodi:sides="5"
     sodipodi:cx="61.995148"
     sodipodi:cy="60.553398"
     sodipodi:r1="14.339218"
     sodipodi:r2="5.0882249"
     sodipodi:arg1="0.9346077"
     sodipodi:arg2="1.5597067"
     inkscape:rounded="0"
     inkscape:randomized="0"
     d="m 70.514565,72.087379 -8.462992,-6.446069 -8.393248,6.578732 3.515367,-10.040729 -8.850401,-5.949513 10.635608,0.240557 2.923399,-10.255733 3.0578,10.189401 10.657162,-0.388878 -8.745784,6.056839 z"
     inkscape:transform-center-x="0.030852672"
     inkscape:transform-center-y="-1.2080714"
     transform="matrix(0.88471526,0,0,0.90420124,31.874046,39.344305)"
     inkscape:label="star2b"
     sodipodi:insensitive="true" /><path
     sodipodi:type="star"
     style="display:inline;fill:#ffffff;fill-opacity:1;stroke:#000000;stroke-width:0;stroke-linecap:round;stroke-dasharray:none;stroke-opacity:1"
     id="path5-3-9"
     inkscape:flatsided="false"
     sodipodi:sides="5"
     sodipodi:cx="61.995148"
     sodipodi:cy="60.553398"
     sodipodi:r1="14.339218"
     sodipodi:r2="0.069139034"
     sodipodi:arg1="0.9346077"
     sodipodi:arg2="1.8967852"
     inkscape:rounded="0"
     inkscape:randomized="0"
     d="M 70.514565,72.087379 61.973006,60.618896 53.658325,72.220042 61.926014,60.55258 48.323291,56.2298 l 13.651271,4.257595 -0.09226,-14.272771 0.169261,14.2988 13.545701,-4.498277 -13.546662,4.579549 z"
     inkscape:transform-center-x="0.030852672"
     inkscape:transform-center-y="-1.2080714"
     transform="matrix(0.88471526,0,0,0.90420124,31.872355,39.362553)"
     inkscape:label="star2"
     sodipodi:insensitive="true" /><path
     sodipodi:type="star"
     style="display:inline;fill:#a10000;fill-opacity:1;stroke:#000000;stroke-width:0;stroke-linecap:round;stroke-dasharray:none;stroke-opacity:1"
     id="path5-8-5"
     inkscape:flatsided="false"
     sodipodi:sides="5"
     sodipodi:cx="61.995148"
     sodipodi:cy="60.553398"
     sodipodi:r1="14.339218"
     sodipodi:r2="5.0882249"
     sodipodi:arg1="0.9346077"
     sodipodi:arg2="1.5597067"
     inkscape:rounded="0"
     inkscape:randomized="0"
     d="m 70.514565,72.087379 -8.462992,-6.446069 -8.393248,6.578732 3.515367,-10.040729 -8.850401,-5.949513 10.635608,0.240557 2.923399,-10.255733 3.0578,10.189401 10.657162,-0.388878 -8.745784,6.056839 z"
     inkscape:transform-center-x="0.030852672"
     inkscape:transform-center-y="-1.2080714"
     transform="matrix(0.88471526,0,0,0.90420124,-20.148359,12.822)"
     inkscape:label="star3b"
     sodipodi:insensitive="true" /><path
     sodipodi:type="star"
     style="display:inline;fill:#ffffff;fill-opacity:1;stroke:#000000;stroke-width:0;stroke-linecap:round;stroke-dasharray:none;stroke-opacity:1"
     id="path5-3-9-4"
     inkscape:flatsided="false"
     sodipodi:sides="5"
     sodipodi:cx="61.995148"
     sodipodi:cy="60.553398"
     sodipodi:r1="14.339218"
     sodipodi:r2="0.069139034"
     sodipodi:arg1="0.9346077"
     sodipodi:arg2="1.8967852"
     inkscape:rounded="0"
     inkscape:randomized="0"
     d="M 70.514565,72.087379 61.973006,60.618896 53.658325,72.220042 61.926014,60.55258 48.323291,56.2298 l 13.651271,4.257595 -0.09226,-14.272771 0.169261,14.2988 13.545701,-4.498277 -13.546662,4.579549 z"
     inkscape:transform-center-x="0.030852672"
     inkscape:transform-center-y="-1.2080714"
     transform="matrix(0.88471526,0,0,0.90420124,-20.15005,12.840248)"
     inkscape:label="star3"
     sodipodi:insensitive="true" /><path
     sodipodi:type="star"
     style="display:inline;fill:#a10000;fill-opacity:1;stroke:#000000;stroke-width:0;stroke-linecap:round;stroke-dasharray:none;stroke-opacity:1"
     id="path5-8-5-3"
     inkscape:flatsided="false"
     sodipodi:sides="5"
     sodipodi:cx="61.995148"
     sodipodi:cy="60.553398"
     sodipodi:r1="14.339218"
     sodipodi:r2="5.0882249"
     sodipodi:arg1="0.9346077"
     sodipodi:arg2="1.5597067"
     inkscape:rounded="0"
     inkscape:randomized="0"
     d="m 70.514565,72.087379 -8.462992,-6.446069 -8.393248,6.578732 3.515367,-10.040729 -8.850401,-5.949513 10.635608,0.240557 2.923399,-10.255733 3.0578,10.189401 10.657162,-0.388878 -8.745784,6.056839 z"
     inkscape:transform-center-x="0.030852672"
     inkscape:transform-center-y="-1.2080714"
     transform="matrix(0.88471526,0,0,0.90420124,43.756258,12.134858)"
     inkscape:label="star4b"
     sodipodi:insensitive="true" /><path
     sodipodi:type="star"
     style="display:inline;fill:#ffffff;fill-opacity:1;stroke:#000000;stroke-width:0;stroke-linecap:round;stroke-dasharray:none;stroke-opacity:1"
     id="path5-3-9-4-3"
     inkscape:flatsided="false"
     sodipodi:sides="5"
     sodipodi:cx="61.995148"
     sodipodi:cy="60.553398"
     sodipodi:r1="14.339218"
     sodipodi:r2="0.069139034"
     sodipodi:arg1="0.9346077"
     sodipodi:arg2="1.8967852"
     inkscape:rounded="0"
     inkscape:randomized="0"
     d="M 70.514565,72.087379 61.973006,60.618896 53.658325,72.220042 61.926014,60.55258 48.323291,56.2298 l 13.651271,4.257595 -0.09226,-14.272771 0.169261,14.2988 13.545701,-4.498277 -13.546662,4.579549 z"
     inkscape:transform-center-x="0.030852672"
     inkscape:transform-center-y="-1.2080714"
     transform="matrix(0.88471526,0,0,0.90420124,43.754567,12.153106)"
     inkscape:label="star4"
     sodipodi:insensitive="true" /><path
     sodipodi:type="star"
     style="display:inline;fill:#a10000;fill-opacity:1;stroke:#000000;stroke-width:0;stroke-linecap:round;stroke-dasharray:none;stroke-opacity:1"
     id="path5-8-5-3-3"
     inkscape:flatsided="false"
     sodipodi:sides="5"
     sodipodi:cx="61.995148"
     sodipodi:cy="60.553398"
     sodipodi:r1="14.339218"
     sodipodi:r2="5.0882249"
     sodipodi:arg1="0.9346077"
     sodipodi:arg2="1.5597067"
     inkscape:rounded="0"
     inkscape:randomized="0"
     d="m 70.514565,72.087379 -8.462992,-6.446069 -8.393248,6.578732 3.515367,-10.040729 -8.850401,-5.949513 10.635608,0.240557 2.923399,-10.255733 3.0578,10.189401 10.657162,-0.388878 -8.745784,6.056839 z"
     inkscape:transform-center-x="0.030852672"
     inkscape:transform-center-y="-1.2080714"
     transform="matrix(0.88471526,0,0,0.90420124,30.468303,-17.451848)"
     inkscape:label="star5b"
     sodipodi:insensitive="true" /><path
     sodipodi:type="star"
     style="display:inline;fill:#ffffff;fill-opacity:1;stroke:#000000;stroke-width:0;stroke-linecap:round;stroke-dasharray:none;stroke-opacity:1"
     id="path5-3-9-4-3-8"
     inkscape:flatsided="false"
     sodipodi:sides="5"
     sodipodi:cx="61.995148"
     sodipodi:cy="60.553398"
     sodipodi:r1="14.339218"
     sodipodi:r2="0.069139034"
     sodipodi:arg1="0.9346077"
     sodipodi:arg2="1.8967852"
     inkscape:rounded="0"
     inkscape:randomized="0"
     d="M 70.514565,72.087379 61.973006,60.618896 53.658325,72.220042 61.926014,60.55258 48.323291,56.2298 l 13.651271,4.257595 -0.09226,-14.272771 0.169261,14.2988 13.545701,-4.498277 -13.546662,4.579549 z"
     inkscape:transform-center-x="0.030852672"
     inkscape:transform-center-y="-1.2080714"
     transform="matrix(0.88471526,0,0,0.90420124,30.466612,-17.4336)"
     inkscape:label="star5"
     sodipodi:insensitive="true" /><path
     sodipodi:type="star"
     style="display:inline;fill:#a10000;fill-opacity:1;stroke:#000000;stroke-width:0;stroke-linecap:round;stroke-dasharray:none;stroke-opacity:1"
     id="path5-8-5-3-3-7"
     inkscape:flatsided="false"
     sodipodi:sides="5"
     sodipodi:cx="61.995148"
     sodipodi:cy="60.553398"
     sodipodi:r1="14.339218"
     sodipodi:r2="5.0882249"
     sodipodi:arg1="0.9346077"
     sodipodi:arg2="1.5597067"
     inkscape:rounded="0"
     inkscape:randomized="0"
     d="m 70.514565,72.087379 -8.462992,-6.446069 -8.393248,6.578732 3.515367,-10.040729 -8.850401,-5.949513 10.635608,0.240557 2.923399,-10.255733 3.0578,10.189401 10.657162,-0.388878 -8.745784,6.056839 z"
     inkscape:transform-center-x="0.030852672"
     inkscape:transform-center-y="-1.2080714"
     transform="matrix(0.88471526,0,0,0.90420124,11.328632,12.601448)"
     inkscape:label="star6b"
     sodipodi:insensitive="true" /><path
     sodipodi:type="star"
     style="display:inline;fill:#ffffff;fill-opacity:1;stroke:#000000;stroke-width:0;stroke-linecap:round;stroke-dasharray:none;stroke-opacity:1"
     id="path5-3-9-4-3-8-7"
     inkscape:flatsided="false"
     sodipodi:sides="5"
     sodipodi:cx="61.995148"
     sodipodi:cy="60.553398"
     sodipodi:r1="14.339218"
     sodipodi:r2="0.069139034"
     sodipodi:arg1="0.9346077"
     sodipodi:arg2="1.8967852"
     inkscape:rounded="0"
     inkscape:randomized="0"
     d="M 70.514565,72.087379 61.973006,60.618896 53.658325,72.220042 61.926014,60.55258 48.323291,56.2298 l 13.651271,4.257595 -0.09226,-14.272771 0.169261,14.2988 13.545701,-4.498277 -13.546662,4.579549 z"
     inkscape:transform-center-x="0.030852672"
     inkscape:transform-center-y="-1.2080714"
     transform="matrix(0.88471526,0,0,0.90420124,11.328632,12.601448)"
     inkscape:label="star6"
     sodipodi:insensitive="true" /><path
     sodipodi:type="star"
     style="display:inline;fill:#a10000;fill-opacity:1;stroke:#000000;stroke-width:0;stroke-linecap:round;stroke-dasharray:none;stroke-opacity:1"
     id="path5-8-5-3-3-7-9"
     inkscape:flatsided="false"
     sodipodi:sides="5"
     sodipodi:cx="61.995148"
     sodipodi:cy="60.553398"
     sodipodi:r1="14.339218"
     sodipodi:r2="5.0882249"
     sodipodi:arg1="0.9346077"
     sodipodi:arg2="1.5597067"
     inkscape:rounded="0"
     inkscape:randomized="0"
     d="m 70.514565,72.087379 -8.462992,-6.446069 -8.393248,6.578732 3.515367,-10.040729 -8.850401,-5.949513 10.635608,0.240557 2.923399,-10.255733 3.0578,10.189401 10.657162,-0.388878 -8.745784,6.056839 z"
     inkscape:transform-center-x="0.030852672"
     inkscape:transform-center-y="-1.2080714"
     transform="matrix(0.88471526,0,0,0.90420124,-7.4096743,-18.102613)"
     inkscape:label="star7b"
     sodipodi:insensitive="true" /><path
     sodipodi:type="star"
     style="display:inline;fill:#ffffff;fill-opacity:1;stroke:#000000;stroke-width:0;stroke-linecap:round;stroke-dasharray:none;stroke-opacity:1"
     id="path5-3-9-4-3-8-7-8"
     inkscape:flatsided="false"
     sodipodi:sides="5"
     sodipodi:cx="61.995148"
     sodipodi:cy="60.553398"
     sodipodi:r1="14.339218"
     sodipodi:r2="0.069139034"
     sodipodi:arg1="0.9346077"
     sodipodi:arg2="1.8967852"
     inkscape:rounded="0"
     inkscape:randomized="0"
     d="M 70.514565,72.087379 61.973006,60.618896 53.658325,72.220042 61.926014,60.55258 48.323291,56.2298 l 13.651271,4.257595 -0.09226,-14.272771 0.169261,14.2988 13.545701,-4.498277 -13.546662,4.579549 z"
     inkscape:transform-center-x="0.030852672"
     inkscape:transform-center-y="-1.2080714"
     transform="matrix(0.88471526,0,0,0.90420124,-7.4096743,-18.102613)"
     inkscape:label="star7"
     sodipodi:insensitive="true" /></svg>
